<?xml version="1.0" standalone="no"?>
<!DOCTYPE svg PUBLIC "-//W3C//DTD SVG 20010904//EN"
 "http://www.w3.org/TR/2001/REC-SVG-20010904/DTD/svg10.dtd">
<svg version="1.0" xmlns="http://www.w3.org/2000/svg"
 width="666.000000pt" height="375.000000pt" viewBox="0 0 666.000000 375.000000"
 preserveAspectRatio="xMidYMid meet">
<metadata>
Created by potrace 1.16, written by Peter Selinger 2001-2019
</metadata>
<g transform="translate(0.000000,375.000000) scale(0.100000,-0.100000)"
fill="#000000" stroke="none">
<path d="M205 3008 c-3 -7 -4 -521 -3 -1143 l3 -1130 2630 0 c2077 0 2639 3
2671 13 83 25 144 77 247 210 557 725 697 909 695 920 -2 7 -181 244 -398 526
-410 534 -429 555 -531 594 -41 16 -243 17 -2677 20 -2113 2 -2633 0 -2637
-10z m4736 -652 c178 -61 296 -199 336 -391 72 -354 -262 -670 -629 -594 -190
40 -358 208 -397 397 -82 396 301 721 690 588z m-3161 -81 l0 -85 -165 0 -165
0 -2 -402 -3 -403 -82 -3 -83 -3 -2 403 -3 403 -167 3 -168 2 0 85 0 85 420 0
420 0 0 -85z m412 -257 c3 -303 5 -347 20 -375 38 -68 113 -98 253 -98 87 0
107 3 150 25 38 19 55 35 73 70 22 43 22 52 22 382 l0 338 91 0 91 0 -4 -352
c-4 -395 -7 -413 -78 -502 -107 -135 -367 -183 -572 -106 -73 27 -159 105
-189 172 -24 52 -24 57 -27 421 l-3 367 85 0 85 0 3 -342z m1694 310 c111 -58
169 -167 161 -298 -3 -45 -13 -94 -25 -122 -25 -56 -83 -117 -136 -142 -23
-11 -36 -23 -32 -31 2 -8 47 -88 99 -179 52 -90 93 -167 89 -170 -3 -3 -45 -6
-94 -6 l-88 0 -23 38 c-13 20 -59 101 -102 180 l-79 142 -158 0 -158 0 -2
-177 -3 -178 -85 0 -85 0 -3 488 -2 488 337 -3 338 -3 51 -27z"/>
<path d="M4646 2204 c-102 -33 -180 -105 -217 -203 -31 -83 -24 -206 16 -279
58 -106 164 -172 290 -180 211 -13 372 133 374 340 2 132 -65 240 -184 299
-79 39 -199 49 -279 23z"/>
<path d="M3340 2049 l0 -140 223 3 c195 3 226 5 250 21 64 42 86 131 47 194
-36 59 -55 63 -300 63 l-220 0 0 -141z"/>
</g>
</svg>
